<?xml version="1.0" encoding="UTF-8"?>
<svg id="Layer_2" data-name="Layer 2" xmlns="http://www.w3.org/2000/svg" viewBox="0 0 230 230">
  <defs>
    <style>
      .cls-1 {
        fill: #ffff;
      }

      .cls-1, .cls-2 {
        stroke-width: 0px;
      }

      .cls-2 {
        fill: #037470;
      }
    </style>
  </defs>
  <g id="Layer_1-2" data-name="Layer 1">
    <g id="Layer_1-2" data-name="Layer 1-2">
      <circle class="cls-2" cx="115" cy="115" r="115"/>
      <g>
        <path class="cls-1" d="m157.44,163.15c0,2.68-1.22,5.16-3.64,7.44-2.43,2.28-5.19,3.41-8.29,3.41s-5.94-1.13-8.52-3.41c-2.37-2.37-3.56-4.85-3.56-7.44v-33.92c0-1.44-.02-3.05-.07-4.8s-.44-3.82-1.16-6.2c-.73-3.1-2.35-5.4-4.88-6.89-2.53-1.5-5.19-2.24-7.97-2.24-2.06,0-4.21.64-6.43,1.93-2.22,1.29-3.9,3.33-5.03,6.12-.82,2.68-1.24,5.84-1.24,9.45v36.4c0,2.59-1.19,5.07-3.56,7.44s-5.16,3.56-8.37,3.56-5.94-1.13-8.52-3.42c-2.37-2.38-3.56-4.92-3.56-7.61v-34.63c0-1.44-.02-3-.07-4.66s-.44-3.86-1.16-6.6c-.73-2.75-2.74-4.99-6.04-6.75-1.97-.83-4.03-1.24-6.2-1.24s-4.45.57-6.82,1.71c-2.37,1.13-4.08,3.42-5.11,6.83-.83,3.31-1.24,6.88-1.24,10.72v34.63c0,2.59-1.19,5.08-3.54,7.45-2.36,2.38-5.13,3.57-8.3,3.57s-5.9-1.13-8.46-3.4c-2.36-2.37-3.54-4.89-3.54-7.58v-39.59c0-6.39,1.08-12.07,3.25-17.01,2.17-4.95,6.6-9.64,13.33-14.08,6.71-4.44,13.79-6.65,21.22-6.65,4.34,0,8.31.77,11.93,2.32l7.75,3.56c1.24.62,2.19,1.13,2.86,1.55s1.62,1.08,2.86,2.01c4.03-3.1,8.26-5.42,12.71-6.97,2.37-.82,4.57-1.44,6.58-1.86,2.01-.41,4.26-.62,6.73-.62,5.78,0,11.87,1.66,18.28,4.96s10.98,8,13.71,14.1c2.74,6.09,4.1,13.53,4.1,22.3v36.11Z"/>
        <path class="cls-1" d="m177.27,51c3.92,0,7.26,1.44,9.99,4.34,2.74,2.9,4.1,6.35,4.1,10.38s-1.44,7.18-4.34,10.07c-2.9,2.68-6.31,4.03-10.23,4.03s-7.15-1.42-9.99-4.26c-2.84-2.84-4.26-6.33-4.26-10.45s1.44-7.26,4.34-9.99c2.89-2.74,6.35-4.1,10.38-4.1h.01Zm11.16,112.01c0,2.47-1.26,4.93-3.79,7.34-2.53,2.43-5.29,3.63-8.28,3.63s-5.94-1.13-8.52-3.4c-2.37-2.37-3.56-4.89-3.56-7.58v-66.03c0-2.78,1.24-5.33,3.72-7.65,2.48-2.32,5.27-3.48,8.37-3.48s5.98,1.19,8.37,3.56c2.48,2.17,3.72,4.69,3.72,7.58v66.03h-.02Z"/>
      </g>
    </g>
  </g>
</svg>